<svg id="e8b12eba-7d5a-444d-8afd-634d71bc9ac3" data-name="Delineator" xmlns="http://www.w3.org/2000/svg" viewBox="0 0 1550 250"><title>delineator-logo-color</title><g id="ee3b7c44-d3fe-4689-8546-b3d8220a27c0" data-name="Logo Group"><g id="a1db6b7f-09a2-4baa-95e6-1802995d80dd" data-name="Logotype"><path d="M41.47,177.72l27-151.87A5.66,5.66,0,0,1,74,21.06h58.43c32,0,67.5,13.86,55.91,80.35s-48.61,81.1-80.59,81.1H45.5A3.85,3.85,0,0,1,41.47,177.72ZM109,143.22c14.86,0,28-5.54,34.51-41.81s-5-41.06-19.9-41.06H107.2L92.59,143.22Z" style="fill:#00ffdc"/><path d="M192.83,177.72,219.78,25.85a5.66,5.66,0,0,1,5.54-4.79h86.89a3.85,3.85,0,0,1,4,4.79L311,55.57a5.66,5.66,0,0,1-5.54,4.78H258.57L255.29,78h36.27a3.84,3.84,0,0,1,4,4.78l-5.29,29.72a5.66,5.66,0,0,1-5.54,4.79H248.49L244,143.22h47.6c2.77,0,4.28,2,3.78,4.78l-5.29,29.72a5.66,5.66,0,0,1-5.54,4.79H196.86A3.85,3.85,0,0,1,192.83,177.72Z" style="fill:#00ffdc"/><path d="M301.31,210.88,334,26.88a6.85,6.85,0,0,1,6.71-5.8h42.72a4.66,4.66,0,0,1,4.88,5.8l-25,142.2H420c3.35,0,5.18,2.44,4.57,5.8l-6.4,36a6.87,6.87,0,0,1-6.72,5.8H306.19C302.83,216.68,300.69,214.24,301.31,210.88Z" style="fill:#00ffdc"/><path d="M438,210.88l32.65-184a6.86,6.86,0,0,1,6.72-5.8H520.1a4.66,4.66,0,0,1,4.88,5.8l-32.65,184a6.86,6.86,0,0,1-6.72,5.8H442.89A4.66,4.66,0,0,1,438,210.88Z" style="fill:#00ffdc"/><path d="M582.35,148.94l-11,61.94a6.85,6.85,0,0,1-6.71,5.8H527.73a4.66,4.66,0,0,1-4.89-5.8l32.65-184a6.86,6.86,0,0,1,6.72-5.8h37.53c3.36,0,4.27,2.44,5.19,4.58l25,63.17c5.8,15,12.21,28.37,12.21,31.12,0,2.44.3,2.75,1.22,2.75s.91-.92,1.22-3l5.18-30.82,11-61.95a6.86,6.86,0,0,1,6.71-5.8h36.93a4.66,4.66,0,0,1,4.88,5.8l-32.65,184a6.86,6.86,0,0,1-6.72,5.8H632.7c-3.36,0-4.28-1.22-5.5-4.58l-25-63.16C596.38,134,590,120.56,590,117.81c0-2.44-.31-2.74-1.22-2.74s-.92.91-1.23,3.05Z" style="fill:#00ffdc"/><path d="M707.15,210.88l32.65-184a6.86,6.86,0,0,1,6.72-5.8H851.79a4.66,4.66,0,0,1,4.88,5.8l-6.4,36a6.87,6.87,0,0,1-6.72,5.8H786.79l-4,21.36h43.94a4.65,4.65,0,0,1,4.88,5.79l-6.41,36a6.85,6.85,0,0,1-6.71,5.8H774.59l-5.49,31.43h57.67c3.36,0,5.19,2.44,4.58,5.8l-6.41,36a6.86,6.86,0,0,1-6.72,5.8H712A4.66,4.66,0,0,1,707.15,210.88Z" style="fill:#00ffdc"/><path d="M890.24,211.49c-1.53,3.67-4.27,5.19-7.94,5.19H841.11a4.47,4.47,0,0,1-4.58-5.49c.61-2.75,1.83-5.49,5.19-12.21l85.74-172.4c2.14-4.28,4.28-5.5,7.63-5.5h41.5c3.36,0,5.19,1.22,5.8,5.5L1007.11,199c.91,6.72,1.52,9.46.91,12.21a6.8,6.8,0,0,1-6.4,5.49H962.25c-3.66,0-5.79-1.83-6.1-5.19L954,190.44H899.7Zm57.67-79.64c-.61-6.1-3-33.56-2.44-36.62.61-2.74,0-3.66-1.22-3.66s-1.83.92-2.44,3.66c-.61,3.06-12.51,30.52-15.26,36.62l-7.93,17.39h31.12Z" style="fill:#00ffdc"/><path d="M1033.05,210.88l25.33-142.19H1019a4.66,4.66,0,0,1-4.88-5.8l6.41-36a6.85,6.85,0,0,1,6.71-5.8h133a4.66,4.66,0,0,1,4.89,5.8l-6.41,36a6.86,6.86,0,0,1-6.72,5.8h-39.36l-25.33,142.19a6.85,6.85,0,0,1-6.71,5.8h-42.72A4.66,4.66,0,0,1,1033.05,210.88Z" style="fill:#00ffdc"/><path d="M1154.19,118.73C1167.92,41.53,1213.7,18,1258.55,18s86,23.5,72.63,100.7-59.81,101-104.67,101S1140.46,195.93,1154.19,118.73Zm121.45,0c7.63-42.72-7-50.65-24.11-50.65s-34.48,7.93-41.8,50.65,6.71,51,23.8,51S1268,161.45,1275.64,118.73Z" style="fill:#00ffdc"/><path d="M1479.79,162.67l12.5,36.31c1.53,4.27,3.36,5.5,6.72,7,2.44,1.22,3.66,2.75,3,5.8-.61,3.36-3,4.88-6.41,4.88H1451.1c-12.81,0-15.56-7.63-19.53-20.14l-14.34-44.85c-1.53-4.28-3.66-6.11-7.63-6.11h-7L1391,210.88a6.86,6.86,0,0,1-6.72,5.8h-42.72a4.66,4.66,0,0,1-4.88-5.8l32.65-184a6.86,6.86,0,0,1,6.72-5.8h85.43c34.18,0,54,25.94,47.91,62.25-4.88,28.08-23.19,51.88-47,56.46C1472.16,144.06,1475.51,149.85,1479.79,162.67Zm-70.19-56.76h17.7c15.87,0,24.72-5.79,27.46-21s-4.27-21.06-19.83-21.06h-18Z" style="fill:#00ffdc"/></g><g id="afdaa0b7-5aa8-4782-857f-ae252932e156" data-name="Registered Trademark"><path d="M1529.19,49.55a10.84,10.84,0,0,1-8.19-3.42,11.68,11.68,0,0,1-3.27-8.41,11.68,11.68,0,0,1,3.24-8.39,10.86,10.86,0,0,1,8.18-3.4,10.71,10.71,0,0,1,8.15,3.42,11.79,11.79,0,0,1,3.22,8.41,11.73,11.73,0,0,1-3.2,8.39A10.66,10.66,0,0,1,1529.19,49.55Zm-.06-21.76a8.91,8.91,0,0,0-6.77,2.9,9.88,9.88,0,0,0-2.73,7,9.88,9.88,0,0,0,2.73,7,9.37,9.37,0,0,0,13.54,0,9.87,9.87,0,0,0,2.72-7,9.93,9.93,0,0,0-2.72-7A8.94,8.94,0,0,0,1529.13,27.79Zm-2.23,11.9v4.63h-2.51V31.21h4.76a6,6,0,0,1,3.7.95,3.4,3.4,0,0,1,1.23,2.86,6.23,6.23,0,0,1-.5,2.83,3.48,3.48,0,0,1-1.71,1.49l2.38,5h-2.64l-2.16-4.63Zm0-6.45v4.42h2.55a1.88,1.88,0,0,0,2.2-2.21c0-1.47-.89-2.21-2.68-2.21Z" style="fill:#00ffdc"/></g></g></svg>